<?xml version="1.0" encoding="UTF-8" standalone="no"?>
<!-- Created with Inkscape (http://www.inkscape.org/) -->

<svg
   xmlns:dc="http://purl.org/dc/elements/1.1/"
   xmlns:cc="http://creativecommons.org/ns#"
   xmlns:rdf="http://www.w3.org/1999/02/22-rdf-syntax-ns#"
   xmlns:svg="http://www.w3.org/2000/svg"
   xmlns="http://www.w3.org/2000/svg"
   xmlns:sodipodi="http://sodipodi.sourceforge.net/DTD/sodipodi-0.dtd"
   xmlns:inkscape="http://www.inkscape.org/namespaces/inkscape"
   width="16"
   height="16"
   viewBox="0 0 16 16"
   id="svg2"
   version="1.1"
   inkscape:version="0.91 r13725"
   sodipodi:docname="contextentity-ico.svg">
  <defs
     id="defs4" />
  <sodipodi:namedview
     id="base"
     pagecolor="#ffffff"
     bordercolor="#666666"
     borderopacity="1.0"
     inkscape:pageopacity="0.0"
     inkscape:pageshadow="2"
     inkscape:zoom="22.4"
     inkscape:cx="6.7582083"
     inkscape:cy="9.8516048"
     inkscape:document-units="px"
     inkscape:current-layer="layer1"
     showgrid="false"
     units="px"
     inkscape:window-width="1920"
     inkscape:window-height="962"
     inkscape:window-x="0"
     inkscape:window-y="30"
     inkscape:window-maximized="1" />
  <metadata
     id="metadata7">
    <rdf:RDF>
      <cc:Work
         rdf:about="">
        <dc:format>image/svg+xml</dc:format>
        <dc:type
           rdf:resource="http://purl.org/dc/dcmitype/StillImage" />
        <dc:title />
      </cc:Work>
    </rdf:RDF>
  </metadata>
  <g
     inkscape:label="Layer 1"
     inkscape:groupmode="layer"
     id="layer1"
     transform="translate(0,-1036.3622)">
    <rect
       style="opacity:1;fill:#ae7bb5;fill-opacity:1;stroke:#000000;stroke-width:0.49933085;stroke-linecap:round;stroke-linejoin:miter;stroke-miterlimit:4;stroke-dasharray:none;stroke-dashoffset:0;stroke-opacity:1"
       id="rect4136"
       width="15.500669"
       height="15.500669"
       x="0.24966542"
       y="1036.6118" />
    <g
       transform="matrix(0.23612212,0,0,0.23612212,-0.18645197,1036.1501)"
       id="g5943">
      <g
         id="g5945">
        <g
           id="g5947">
          <g
             id="g5949">
            <g
               id="g5951">
              <g
                 id="g5953">
                <g
                   id="g5955">
                  <g
                     id="g5957">
                    <path
                       inkscape:connector-curvature="0"
                       d="m 34.865,45.225 c -5.79,0 -10.501,-4.711 -10.501,-10.501 0,-5.791 4.711,-10.502 10.501,-10.502 5.791,0 10.502,4.711 10.502,10.502 0,5.888 -4.613,10.501 -10.502,10.501 z m 0,-16.003 c -3.033,0 -5.501,2.468 -5.501,5.502 0,3.033 2.468,5.501 5.501,5.501 3.137,0 5.502,-2.365 5.502,-5.501 0,-3.034 -2.468,-5.502 -5.502,-5.502 z"
                       id="path5959" />
                  </g>
                </g>
              </g>
              <g
                 id="g5961">
                <path
                   inkscape:connector-curvature="0"
                   d="m 37.089,64.908 -4.274,0 c -3.512,0 -6.368,-2.856 -6.368,-6.368 l 0,-1.523 c -0.416,-0.17 -0.84,-0.353 -1.262,-0.544 l -1.188,1.188 c -1.063,1.063 -2.612,1.649 -4.363,1.649 -1.62,0 -3.184,-0.503 -4.401,-1.417 -0.095,-0.071 -0.184,-0.148 -0.268,-0.232 L 11.708,54.405 C 10.447,53.144 9.754,51.54 9.754,49.888 c 0,-1.652 0.694,-3.256 1.954,-4.516 l 1.166,-1.166 c -0.161,-0.375 -0.296,-0.74 -0.408,-1.081 l -1.433,0 c -3.512,0 -6.368,-2.856 -6.368,-6.368 l 0,-4.274 c 0,-3.511 2.856,-6.368 6.368,-6.368 l 1.592,0 c 0.05,-0.116 0.099,-0.229 0.146,-0.339 0.088,-0.205 0.175,-0.405 0.251,-0.593 l -1.314,-1.315 c -1.26,-1.259 -1.954,-2.863 -1.954,-4.516 0,-1.653 0.694,-3.256 1.954,-4.516 l 3.257,-3.257 c 1.063,-1.063 2.612,-1.648 4.363,-1.648 1.62,0 3.184,0.503 4.401,1.416 0.095,0.071 0.184,0.149 0.268,0.233 l 1.166,1.166 c 0.375,-0.161 0.739,-0.295 1.08,-0.407 l 0,-1.434 c 0,-3.511 2.856,-6.368 6.367,-6.368 l 4.275,0 c 3.512,0 6.368,2.856 6.368,6.368 l 0,1.632 c 0.308,0.131 0.624,0.264 0.917,0.373 l 1.329,-1.329 c 1.063,-1.063 2.612,-1.648 4.363,-1.648 1.62,0 3.184,0.503 4.401,1.416 0.095,0.071 0.185,0.149 0.269,0.233 l 3.256,3.257 c 1.259,1.259 1.953,2.863 1.953,4.516 0,1.652 -0.694,3.256 -1.954,4.516 l -1.166,1.166 c 0.161,0.375 0.296,0.74 0.408,1.081 l 1.434,0 c 3.512,0 6.368,2.856 6.368,6.368 l 0,4.274 c 0,3.511 -2.856,6.368 -6.368,6.368 l -1.592,0 c -0.05,0.117 -0.1,0.231 -0.147,0.341 -0.088,0.204 -0.175,0.404 -0.251,0.591 l 1.314,1.315 c 1.26,1.259 1.954,2.863 1.954,4.516 0,1.653 -0.694,3.256 -1.954,4.516 l -3.256,3.256 c -1.063,1.063 -2.613,1.649 -4.363,1.649 -1.621,0 -3.184,-0.503 -4.401,-1.417 -0.095,-0.071 -0.185,-0.148 -0.268,-0.232 l -1.166,-1.166 c -0.375,0.161 -0.739,0.295 -1.08,0.408 l 0,1.434 c 10e-4,3.744 -2.649,6.569 -6.164,6.569 z m -12.62,-13.754 0.61,0 c 0.389,0 0.772,0.091 1.12,0.265 1.168,0.585 2.491,1.143 3.537,1.492 1.021,0.34 1.71,1.295 1.71,2.372 l 0,3.257 c 0,0.845 0.71,1.368 1.368,1.368 l 4.274,0 c 0.859,0 1.165,-0.812 1.165,-1.571 l 0,-2.85 c 0,-1.869 1.224,-2.922 2.539,-3.088 0.667,-0.144 1.348,-0.379 1.913,-0.657 0.629,-0.718 1.37,-0.892 1.94,-0.892 1.11,0 1.785,0.673 2.147,1.035 l 2.085,2.085 c 0.342,0.212 0.821,0.34 1.29,0.34 0.515,0 0.786,-0.147 0.831,-0.187 l 3.253,-3.253 c 0.224,-0.224 0.489,-0.575 0.489,-0.98 0,-0.405 -0.266,-0.757 -0.489,-0.98 L 52.012,46.67 C 51.543,46.201 51.28,45.566 51.28,44.902 l 0,-0.611 c 0,-0.165 0.017,-0.33 0.049,-0.491 0.171,-0.853 0.494,-1.599 0.807,-2.32 0.186,-0.427 0.359,-0.829 0.495,-1.236 0.157,-0.472 0.446,-0.873 0.817,-1.167 0.764,-0.817 1.661,-0.949 2.165,-0.949 l 2.85,0 c 0.845,0 1.368,-0.71 1.368,-1.368 l 0,-4.274 c 0,-0.845 -0.71,-1.368 -1.368,-1.368 l -2.85,0 c -1.868,0 -2.921,-1.224 -3.087,-2.539 -0.158,-0.728 -0.424,-1.471 -0.735,-2.064 -0.34,-0.39 -0.571,-0.871 -0.655,-1.39 -0.148,-0.914 0.17,-1.842 0.875,-2.548 l 2.241,-2.241 c 0.224,-0.224 0.489,-0.575 0.489,-0.98 0,-0.406 -0.266,-0.757 -0.489,-0.98 l -3.1,-3.102 c -0.342,-0.211 -0.821,-0.34 -1.29,-0.34 -0.515,0 -0.786,0.147 -0.831,0.187 l -2.236,2.236 c -0.469,0.469 -1.104,0.732 -1.768,0.732 l -0.61,0 c -0.165,0 -0.33,-0.016 -0.491,-0.049 -1.003,-0.201 -2.013,-0.635 -2.903,-1.019 -0.272,-0.117 -0.538,-0.231 -0.79,-0.333 -0.415,-0.166 -0.768,-0.435 -1.033,-0.771 -0.814,-0.763 -0.946,-1.659 -0.946,-2.162 l 0,-2.85 c 0,-0.845 -0.71,-1.368 -1.368,-1.368 l -4.276,0 c -0.845,0 -1.367,0.71 -1.367,1.368 l 0,2.85 c 0,1.869 -1.225,2.923 -2.539,3.088 -0.667,0.144 -1.347,0.378 -1.912,0.657 -0.63,0.719 -1.371,0.893 -1.941,0.893 -1.111,0 -1.786,-0.674 -2.148,-1.036 l -2.084,-2.084 c -0.341,-0.212 -0.821,-0.34 -1.29,-0.34 -0.515,0 -0.786,0.147 -0.831,0.187 l -3.254,3.254 c -0.224,0.224 -0.489,0.575 -0.489,0.98 0,0.406 0.266,0.757 0.489,0.98 l 2.239,2.24 c 0.469,0.469 0.732,1.104 0.732,1.768 l 0,0.611 c 0,0.165 -0.017,0.328 -0.049,0.489 -0.17,0.854 -0.494,1.602 -0.807,2.324 C 17.175,28.191 17,28.594 16.865,29 c -0.157,0.471 -0.446,0.872 -0.816,1.166 -0.764,0.818 -1.662,0.951 -2.166,0.951 l -2.85,0 c -0.845,0 -1.368,0.71 -1.368,1.368 l 0,4.274 c 0,0.845 0.71,1.368 1.368,1.368 l 2.85,0 c 1.868,0 2.922,1.225 3.087,2.54 0.157,0.725 0.422,1.467 0.734,2.063 0.34,0.39 0.571,0.87 0.655,1.389 0.149,0.914 -0.17,1.844 -0.876,2.551 l -2.24,2.24 c -0.224,0.224 -0.489,0.575 -0.489,0.98 0,0.406 0.267,0.757 0.489,0.981 l 3.101,3.1 c 0.341,0.212 0.821,0.34 1.29,0.34 0.515,0 0.786,-0.147 0.83,-0.187 l 2.237,-2.237 c 0.469,-0.47 1.105,-0.733 1.768,-0.733 z"
                   id="path5963" />
              </g>
            </g>
          </g>
        </g>
      </g>
    </g>
  </g>
</svg>
