<?xml version="1.0" encoding="UTF-8" standalone="no"?>
<!-- Created with Inkscape (http://www.inkscape.org/) -->

<svg
   xmlns:dc="http://purl.org/dc/elements/1.1/"
   xmlns:cc="http://creativecommons.org/ns#"
   xmlns:rdf="http://www.w3.org/1999/02/22-rdf-syntax-ns#"
   xmlns:svg="http://www.w3.org/2000/svg"
   xmlns="http://www.w3.org/2000/svg"
   xmlns:sodipodi="http://sodipodi.sourceforge.net/DTD/sodipodi-0.dtd"
   xmlns:inkscape="http://www.inkscape.org/namespaces/inkscape"
   width="16"
   height="16"
   viewBox="0 0 16 16"
   id="svg4760"
   version="1.1"
   inkscape:version="0.91 r13725"
   sodipodi:docname="enumeration-icon.svg">
  <defs
     id="defs4762" />
  <sodipodi:namedview
     id="base"
     pagecolor="#ffffff"
     bordercolor="#666666"
     borderopacity="1.0"
     inkscape:pageopacity="0.0"
     inkscape:pageshadow="2"
     inkscape:zoom="31.678384"
     inkscape:cx="15.557688"
     inkscape:cy="9.9061534"
     inkscape:document-units="px"
     inkscape:current-layer="layer1"
     showgrid="false"
     units="px"
     inkscape:window-width="1920"
     inkscape:window-height="962"
     inkscape:window-x="0"
     inkscape:window-y="30"
     inkscape:window-maximized="1" />
  <metadata
     id="metadata4765">
    <rdf:RDF>
      <cc:Work
         rdf:about="">
        <dc:format>image/svg+xml</dc:format>
        <dc:type
           rdf:resource="http://purl.org/dc/dcmitype/StillImage" />
        <dc:title></dc:title>
      </cc:Work>
    </rdf:RDF>
  </metadata>
  <g
     inkscape:label="Layer 1"
     inkscape:groupmode="layer"
     id="layer1"
     transform="translate(0,-1036.3622)">
    <path
       inkscape:connector-curvature="0"
       d="m 5,1038.6449 10.2,0 c 0.4416,0 0.8,-0.3584 0.8,-0.8 0,-0.4418 -0.3584,-0.7999 -0.8,-0.7999 l -10.2,0 c -0.441778,0 -0.8,0.3581 -0.8,0.7999 0,0.4416 0.358222,0.8 0.8,0.8 z"
       id="path4178" />
    <path
       inkscape:connector-curvature="0"
       d="m 15.2,1049.8453 -10.2,0 c -0.441778,0 -0.8,0.3584 -0.8,0.7999 0,0.4417 0.358222,0.8001 0.8,0.8001 l 10.2,0 c 0.4416,0 0.8,-0.3584 0.8,-0.8001 0,-0.4415 -0.3584,-0.7999 -0.8,-0.7999 z"
       id="path4180" />
    <circle
       cx="1.2000037"
       cy="1037.8455"
       r="1.2"
       id="circle4182" />
    <circle
       cx="1.2000037"
       cy="1050.6453"
       r="1.2"
       id="circle4184" />
    <path
       inkscape:connector-curvature="0"
       d="m 15.2,1045.5793 -10.2,0 c -0.441778,0 -0.8,0.3584 -0.8,0.8 0,0.4415 0.358222,0.8001 0.8,0.8001 l 10.2,0 c 0.4416,0 0.8,-0.3586 0.8,-0.8001 0,-0.4416 -0.3584,-0.8 -0.8,-0.8 z"
       id="path4186" />
    <path
       inkscape:connector-curvature="0"
       d="m 1.200001,1045.1793 c -0.662935,0 -1.200001,0.5369 -1.200001,1.2 0,0.6626 0.537066,1.2001 1.200001,1.2001 0.662933,0 1.199999,-0.5375 1.199999,-1.2001 0,-0.6636 -0.537066,-1.2 -1.199999,-1.2 z"
       id="path4188" />
    <path
       inkscape:connector-curvature="0"
       d="m 15.2,1041.3108 -10.2,0 c -0.441778,0 -0.8,0.3583 -0.8,0.8001 0,0.4417 0.358222,0.8 0.8,0.8 l 10.2,0 c 0.4416,0 0.8,-0.3583 0.8,-0.8 0,-0.4418 -0.3584,-0.8001 -0.8,-0.8001 z"
       id="path4190" />
    <circle
       cx="1.2000037"
       cy="1042.1112"
       r="1.2"
       id="circle4192" />
  </g>
</svg>
