<?xml version="1.0" encoding="UTF-8" standalone="no"?>
<!-- Created with Inkscape (http://www.inkscape.org/) -->

<svg
   xmlns:dc="http://purl.org/dc/elements/1.1/"
   xmlns:cc="http://creativecommons.org/ns#"
   xmlns:rdf="http://www.w3.org/1999/02/22-rdf-syntax-ns#"
   xmlns:svg="http://www.w3.org/2000/svg"
   xmlns="http://www.w3.org/2000/svg"
   xmlns:sodipodi="http://sodipodi.sourceforge.net/DTD/sodipodi-0.dtd"
   xmlns:inkscape="http://www.inkscape.org/namespaces/inkscape"
   width="50"
   height="50"
   viewBox="0 0 50 50"
   id="svg4149"
   version="1.1"
   inkscape:version="0.91 r13725"
   sodipodi:docname="outputport.svg">
  <defs
     id="defs4151" />
  <sodipodi:namedview
     id="base"
     pagecolor="#ffffff"
     bordercolor="#666666"
     borderopacity="1.0"
     inkscape:pageopacity="0.0"
     inkscape:pageshadow="2"
     inkscape:zoom="3.959798"
     inkscape:cx="52.517732"
     inkscape:cy="51.202078"
     inkscape:document-units="px"
     inkscape:current-layer="layer1"
     showgrid="false"
     units="px"
     inkscape:window-width="1920"
     inkscape:window-height="962"
     inkscape:window-x="0"
     inkscape:window-y="30"
     inkscape:window-maximized="1"
     fit-margin-top="0"
     fit-margin-left="0"
     fit-margin-right="0"
     fit-margin-bottom="0" />
  <metadata
     id="metadata4154">
    <rdf:RDF>
      <cc:Work
         rdf:about="">
        <dc:format>image/svg+xml</dc:format>
        <dc:type
           rdf:resource="http://purl.org/dc/dcmitype/StillImage" />
        <dc:title></dc:title>
      </cc:Work>
    </rdf:RDF>
  </metadata>
  <g
     inkscape:label="Layer 1"
     inkscape:groupmode="layer"
     id="layer1"
     transform="translate(2.5033951e-6,-1002.3622)">
    <circle
       style="fill:#ffffff;fill-opacity:1;fill-rule:evenodd;stroke:#000000;stroke-width:1.19221234;stroke-miterlimit:4;stroke-dasharray:none;stroke-dashoffset:0;stroke-opacity:1"
       id="path4697"
       cx="24.999998"
       cy="1027.3622"
       r="24.403894" />
    <path
       style="fill:#ff0000;fill-opacity:1;fill-rule:evenodd;stroke:#000000;stroke-width:0.3034246;stroke-miterlimit:4;stroke-dasharray:none;stroke-dashoffset:0;stroke-opacity:1"
       d="m 25.813856,1045.7495 c 0.03465,-0.1215 0.331705,-1.7724 0.660145,-3.6686 0.55609,-3.2105 0.58276,-3.462 0.38781,-3.6569 -0.19495,-0.195 -0.76296,-0.146 -8.259345,0.7123 -4.427495,0.507 -8.291485,0.9529 -8.58664,0.9909 l -0.5366448,0.069 0,-6.3937 c 0,-3.5166 0.0298,-6.3938 0.066245,-6.3938 0.03645,0 3.7605798,0.4262 8.2758798,0.947 4.515295,0.5209 8.370775,0.947 8.567725,0.947 0.734,0 0.734755,-0.075 0.0406,-4.0133 -0.351485,-1.9943 -0.6245,-3.6408 -0.60669,-3.6591 0.0178,-0.018 3.880495,2.7032 8.58375,6.0476 6.962475,4.951 8.52042,6.1103 8.384755,6.2396 -0.234195,0.2233 -16.89472,12.0528 -16.974915,12.0528 -0.0361,0 -0.0373,-0.099 -0.0025,-0.221 l -5e-6,0 z"
       id="path6304"
       inkscape:connector-curvature="0" />
    <text
       xml:space="preserve"
       style="font-style:normal;font-variant:normal;font-weight:500;font-stretch:normal;font-size:12.49999905px;line-height:125%;font-family:KacstPen;-inkscape-font-specification:'KacstPen, Medium';text-align:start;letter-spacing:0px;word-spacing:0px;writing-mode:lr-tb;text-anchor:start;fill:#000000;fill-opacity:1;stroke:none;stroke-width:1px;stroke-linecap:butt;stroke-linejoin:miter;stroke-opacity:1"
       x="10.519582"
       y="1069.6191"
       id="text4714"
       sodipodi:linespacing="125%"
       transform="scale(1.049736,0.95262045)"><tspan
         sodipodi:role="line"
         id="tspan4782"
         x="10.519582"
         y="1069.6191">OUT</tspan></text>
  </g>
</svg>
