<?xml version="1.0" encoding="UTF-8" standalone="no"?>
<!-- Created with Inkscape (http://www.inkscape.org/) -->

<svg
   xmlns:dc="http://purl.org/dc/elements/1.1/"
   xmlns:cc="http://creativecommons.org/ns#"
   xmlns:rdf="http://www.w3.org/1999/02/22-rdf-syntax-ns#"
   xmlns:svg="http://www.w3.org/2000/svg"
   xmlns="http://www.w3.org/2000/svg"
   xmlns:sodipodi="http://sodipodi.sourceforge.net/DTD/sodipodi-0.dtd"
   xmlns:inkscape="http://www.inkscape.org/namespaces/inkscape"
   width="25"
   height="25"
   viewBox="0 0 25 25"
   id="svg4209"
   version="1.1"
   inkscape:version="0.91 r13725"
   sodipodi:docname="outputport3.svg">
  <defs
     id="defs4211" />
  <sodipodi:namedview
     id="base"
     pagecolor="#ffffff"
     bordercolor="#666666"
     borderopacity="1.0"
     inkscape:pageopacity="0.0"
     inkscape:pageshadow="2"
     inkscape:zoom="11.2"
     inkscape:cx="-4.1179049"
     inkscape:cy="6.0086223"
     inkscape:document-units="px"
     inkscape:current-layer="layer1"
     showgrid="false"
     units="px"
     inkscape:window-width="1920"
     inkscape:window-height="962"
     inkscape:window-x="0"
     inkscape:window-y="30"
     inkscape:window-maximized="1" />
  <metadata
     id="metadata4214">
    <rdf:RDF>
      <cc:Work
         rdf:about="">
        <dc:format>image/svg+xml</dc:format>
        <dc:type
           rdf:resource="http://purl.org/dc/dcmitype/StillImage" />
        <dc:title></dc:title>
      </cc:Work>
    </rdf:RDF>
  </metadata>
  <g
     inkscape:label="Layer 1"
     inkscape:groupmode="layer"
     id="layer1"
     transform="translate(0,-1027.3622)">
    <rect
       style="fill:#dcdcdc;fill-opacity:1;fill-rule:evenodd;stroke:#000000;stroke-width:1.77870607;stroke-linejoin:round;stroke-miterlimit:4;stroke-dasharray:none;stroke-dashoffset:0;stroke-opacity:1"
       id="rect4757"
       width="10.221294"
       height="23.221294"
       x="0.88935304"
       y="1028.2516" />
    <path
       style="fill:#ff0000;fill-opacity:1;fill-rule:evenodd;stroke:#000000;stroke-width:0.16041732;stroke-miterlimit:4;stroke-dasharray:none;stroke-dashoffset:0;stroke-opacity:1"
       d="m 15.39802,1046.0899 c 0.0194,-0.061 0.18589,-0.884 0.36995,-1.8297 0.31168,-1.6011 0.32662,-1.7266 0.21734,-1.8238 -0.10924,-0.097 -0.4276,-0.073 -4.62892,0.3553 -2.4813798,0.2528 -4.6469399,0.4752 -4.8123599,0.4942 l -0.30078,0.034 0,-3.1888 c 0,-1.7538 0.0167,-3.1887 0.0371,-3.1887 0.0204,0 2.1076001,0.2125 4.6381999,0.4723 2.53059,0.2597 4.6914,0.4723 4.80177,0.4723 0.41136,0 0.41178,-0.037 0.0227,-2.0016 -0.19701,-0.9946 -0.34999,-1.8158 -0.34001,-1.8249 0.01,-0.01 2.1748,1.3481 4.81075,3.0161 3.9021,2.4692 4.77526,3.0474 4.69921,3.1119 -0.13124,0.1113 -9.46862,6.0111 -9.51355,6.0111 -0.0202,0 -0.0209,-0.05 -10e-4,-0.1102 l -10e-6,0 z"
       id="path6304"
       inkscape:connector-curvature="0" />
  </g>
</svg>
