<?xml version="1.0" encoding="UTF-8" standalone="no"?>
<!-- Generator: Adobe Illustrator 16.0.0, SVG Export Plug-In . SVG Version: 6.00 Build 0)  -->

<svg
   xmlns:dc="http://purl.org/dc/elements/1.1/"
   xmlns:cc="http://creativecommons.org/ns#"
   xmlns:rdf="http://www.w3.org/1999/02/22-rdf-syntax-ns#"
   xmlns:svg="http://www.w3.org/2000/svg"
   xmlns="http://www.w3.org/2000/svg"
   xmlns:sodipodi="http://sodipodi.sourceforge.net/DTD/sodipodi-0.dtd"
   xmlns:inkscape="http://www.inkscape.org/namespaces/inkscape"
   version="1.1"
   id="Capa_1"
   x="0px"
   y="0px"
   width="100"
   height="50"
   viewBox="0 0 100 50"
   xml:space="preserve"
   inkscape:version="0.91 r13725"
   sodipodi:docname="quality.svg"><metadata
     id="metadata4869"><rdf:RDF><cc:Work
         rdf:about=""><dc:format>image/svg+xml</dc:format><dc:type
           rdf:resource="http://purl.org/dc/dcmitype/StillImage" /><dc:title></dc:title></cc:Work></rdf:RDF></metadata><defs
     id="defs4867"><inkscape:path-effect
       effect="spiro"
       id="path-effect5421"
       is_visible="true" /><inkscape:path-effect
       effect="spiro"
       id="path-effect5417"
       is_visible="true" /><inkscape:path-effect
       effect="spiro"
       id="path-effect5413"
       is_visible="true" /></defs><sodipodi:namedview
     pagecolor="#ffffff"
     bordercolor="#666666"
     borderopacity="1"
     objecttolerance="10"
     gridtolerance="10"
     guidetolerance="10"
     inkscape:pageopacity="0"
     inkscape:pageshadow="2"
     inkscape:window-width="1920"
     inkscape:window-height="960"
     id="namedview4865"
     showgrid="false"
     fit-margin-top="0"
     fit-margin-left="0"
     fit-margin-right="0"
     fit-margin-bottom="0"
     inkscape:zoom="5.5028332"
     inkscape:cx="72.060426"
     inkscape:cy="59.42514"
     inkscape:window-x="1280"
     inkscape:window-y="40"
     inkscape:window-maximized="1"
     inkscape:current-layer="Capa_1" /><g
     id="g4831"
     transform="matrix(0.20609548,0,0,0.13739699,0,-8.3332642)"><path
       d="m 314.7801,67.103074 c 50.26,0 95.41272,47.354926 95.41272,97.609926 0,11.964 9.95165,36.60185 -8.43809,48.41023 38.709,10.484 77.07001,52.11992 77.07001,94.11392 0,50.255 -64.66038,107.66612 -114.91674,106.89562 l -259.54309,-3.97915 c -41.870803,-0.64194 -93.542918,-43.2227 -93.542918,-85.1057 0,-41.868 25.073542,-87.74746 66.946542,-87.74746 2.326,0 8.050183,-4.83154 10.316183,-4.62354 -4.264,-9.477 -1.450725,-25.23354 -1.450725,-36.31154 0,-41.877 52.558458,-77.14038 94.433458,-77.14038 13.682,0 21.91128,-0.0702 32.98528,6.26784 13.772,-32.753996 49.66818,-53.084227 87.42918,-53.084227 M 303.255,60.651 c -38.793,0 -74.421,18.332 -96.989,48.393 -7.948,-1.925 -16.064,-2.903 -24.311,-2.903 -58.518,0 -106.139,47.623 -106.139,106.141 0,1.479 0.028,2.931 0.089,4.385 C 32.061,229.698 0,270.383 0,318.416 0,376.946 47.62,424.56 106.139,424.56 l 257.77,0 c 66.902,0 121.303,-54.399 121.303,-121.302 0,-44.211 -24.312,-84.166 -61.741,-105.311 0.732,-5.271 1.092,-10.631 1.092,-15.992 C 424.562,115.086 370.157,60.651 303.255,60.651 Z"
       id="path4833"
       inkscape:connector-curvature="0"
       sodipodi:nodetypes="cscssssscssccccsscsssscccc" /></g><g
     id="g4835"
     transform="translate(0,-374.56)" /><g
     id="g4837"
     transform="translate(0,-374.56)" /><g
     id="g4839"
     transform="translate(0,-374.56)" /><g
     id="g4841"
     transform="translate(0,-374.56)" /><g
     id="g4843"
     transform="translate(0,-374.56)" /><g
     id="g4845"
     transform="translate(0,-374.56)" /><g
     id="g4847"
     transform="translate(0,-374.56)" /><g
     id="g4849"
     transform="translate(0,-374.56)" /><g
     id="g4851"
     transform="translate(0,-374.56)" /><g
     id="g4853"
     transform="translate(0,-374.56)" /><g
     id="g4855"
     transform="translate(0,-374.56)" /><g
     id="g4857"
     transform="translate(0,-374.56)" /><g
     id="g4859"
     transform="translate(0,-374.56)" /><g
     id="g4861"
     transform="translate(0,-374.56)" /><g
     id="g4863"
     transform="translate(0,-374.56)" /></svg>